<?xml version="1.0" encoding="UTF-8" standalone="no"?>
<!-- Uploaded to: SVG Repo, www.svgrepo.com, Generator: SVG Repo Mixer Tools -->

<svg
   width="100"
   height="100"
   viewBox="0 0 3 3"
   fill="none"
   version="1.1"
   id="svg24"
   sodipodi:docname="cart.svg"
   inkscape:version="1.2.2 (732a01da63, 2022-12-09)"
   xmlns:inkscape="http://www.inkscape.org/namespaces/inkscape"
   xmlns:sodipodi="http://sodipodi.sourceforge.net/DTD/sodipodi-0.dtd"
   xmlns="http://www.w3.org/2000/svg"
   xmlns:svg="http://www.w3.org/2000/svg">
  <defs
     id="defs28" />
  <sodipodi:namedview
     id="namedview26"
     pagecolor="#ffffff"
     bordercolor="#000000"
     borderopacity="0.25"
     inkscape:showpageshadow="2"
     inkscape:pageopacity="0.0"
     inkscape:pagecheckerboard="0"
     inkscape:deskcolor="#d1d1d1"
     showgrid="false"
     inkscape:zoom="5.9184838"
     inkscape:cx="92.844726"
     inkscape:cy="56.771297"
     inkscape:window-width="1920"
     inkscape:window-height="1017"
     inkscape:window-x="-8"
     inkscape:window-y="-8"
     inkscape:window-maximized="1"
     inkscape:current-layer="svg24" />
  <path
     id="path16"
     style="color:#000000;fill:#dcdcc8;fill-opacity:1;stroke-width:0.15606;stroke-linecap:round;-inkscape-stroke:none"
     d="M 0.11574617,1.5461737e-6 A 0.11704508,0.11704508 0 0 0 0.00593417,0.08000355 a 0.11704508,0.11704508 0 0 0 0.074068,0.1478243 l 0.041149,0.014027 c 0.1030029,0.034335 0.1779749,0.059595 0.2267749,0.082297 0.0488,0.022702 0.068128,0.038811 0.083212,0.059739 0.015084,0.020928 0.02407,0.044368 0.030176,0.097842 0.00611,0.053475 0.0067,0.1325291 0.0067,0.2411038 V 1.131269 c 0,0.2206998 -6.352e-4,0.3886956 0.018288,0.5294462 0.018923,0.1407506 0.062255,0.2618968 0.1530181,0.3526623 0.090764,0.090766 0.2119017,0.1340849 0.3526532,0.153009 0.14075143,0.018924 0.30874403,0.018288 0.52944603,0.018288 H 2.7699081 A 0.11704508,0.11704508 0 0 0 2.8869532,2.0676302 0.11704508,0.11704508 0 0 0 2.7699081,1.9505851 H 1.521421 c -0.220702,0 -0.3838131,-7.897e-4 -0.498045,-0.016148 C 0.90914407,1.9190783 0.85119357,1.8942327 0.80483087,1.847869 0.75846747,1.8015045 0.73362137,1.7435556 0.71826317,1.6293238 c -0.0018,-0.013396 -0.0034,-0.027491 -0.00482,-0.042246 H 2.3441371 C 2.6456644,1.5971238 2.6510908,1.5171688 2.7263899,1.4125709 L 2.9408568,0.90635095 C 3.0772797,0.56528475 2.9856198,0.49526435 2.5828919,0.49465415 H 0.69753337 c -9.926e-4,-0.0134258 -0.002187,-0.0265611 -0.003658,-0.0394387 -0.008624,-0.0755345 -0.0290108,-0.1473731 -0.0728423,-0.2081848 -0.0438304,-0.0608129 -0.1054203,-0.1029553 -0.1743514,-0.1350224 -0.0689312,-0.0320672 -0.1484617,-0.0580213 -0.2514641,-0.0923559 l -0.04145,-0.013716 A 0.11704508,0.11704508 0 0 0 0.11574697,6.3461737e-6 Z M 0.70159337,0.59659315 H 2.4896856 c 0.383565,4.962e-4 0.47087,0.05746 0.3409395,0.3349226 L 2.626354,1.3433407 C 2.5546382,1.428433 2.549478,1.4934668 2.2622981,1.4852944 H 0.70665017 c -0.00421,-0.096131 -0.004545,-0.213368 -0.004545,-0.3540248 V 0.72283725 c 0,-0.046189 7e-5,-0.087812 -5.118e-4,-0.1262441 z m 0.2736204,1.74414535 c -0.1925427,0 -0.3511353,0.1585978 -0.3511353,0.3511352 0,0.1925375 0.1585926,0.3511353 0.3511353,0.3511353 0.19254263,0 0.35113523,-0.1585978 0.35113523,-0.3511353 0,-0.1925374 -0.1585926,-0.3511352 -0.35113523,-0.3511352 z m 1.40454093,0 c -0.1925309,0 -0.3511352,0.1585869 -0.3511352,0.3511352 0,0.1925403 0.158595,0.3511353 0.3511352,0.3511353 0.1925403,0 0.3511352,-0.158595 0.3511352,-0.3511353 0,-0.1925483 -0.1586043,-0.3511352 -0.3511352,-0.3511352 z M 0.97521377,2.5748287 c 0.066026,0 0.11704503,0.051023 0.11704503,0.117045 0,0.066022 -0.051019,0.1170451 -0.11704503,0.1170451 -0.066027,0 -0.1170451,-0.051023 -0.1170451,-0.1170451 0,-0.066022 0.051018,-0.117045 0.1170451,-0.117045 z m 1.40454093,0 c 0.066029,0 0.1170451,0.051002 0.1170451,0.117045 0,0.06602 -0.051025,0.1170451 -0.1170451,0.1170451 -0.06602,0 -0.1170451,-0.051025 -0.1170451,-0.1170451 0,-0.066043 0.051016,-0.117045 0.1170451,-0.117045 z" />
  <path
     id="path1190"
     style="font-size:0.36px;font-family:'Monotype Corsiva';-inkscape-font-specification:'Monotype Corsiva';fill:#e6e548;stroke-width:0.0502474;paint-order:markers stroke fill;stroke:none;stroke-opacity:1;fill-opacity:1"
     d="m 1.1986078,0.88913666 c -0.00642,0.009252 -0.013816,0.0162135 -0.022167,0.0208842 -0.00529,0.003113 -0.018965,0.00838 -0.040995,0.015793 -0.025464,0.008252 -0.04304,0.0148789 -0.052725,0.0198769 -0.018898,0.009476 -0.033948,0.0202307 -0.045146,0.0322676 -0.011245,0.0118461 -0.018905,0.0251375 -0.022977,0.0398752 -0.00393,0.0145 -0.00421,0.028613 -8.483e-4,0.04234 0.00238,0.00972 0.00608,0.016598 0.011101,0.020622 0.00517,0.00379 0.010987,0.00489 0.017479,0.0033 0.00457,-0.00112 0.00808,-0.0037 0.010536,-0.00773 0.00245,-0.00404 0.00316,-0.00815 0.00214,-0.012344 -7.933e-4,-0.00324 -0.00339,-0.00806 -0.00778,-0.014463 -0.00403,-0.00568 -0.00645,-0.010243 -0.00729,-0.013674 -0.00257,-0.010486 -0.00107,-0.021763 0.00445,-0.033826 0.00554,-0.0120662 0.015678,-0.0226303 0.030434,-0.0316976 0.010698,-0.00666 0.039077,-0.017849 0.085141,-0.0335697 -0.024989,0.0473391 -0.054866,0.12052756 -0.08963,0.21956496 -0.030709,0.087537 -0.055754,0.146206 -0.075133,0.1760062 -0.0118975,0.018268 -0.0242316,0.028967 -0.0370047,0.032094 -0.00381,9.325e-4 -0.0117699,0.00146 -0.0238574,0.0016 -0.004812,1.675e-4 -0.008549,5.792e-4 -0.0112116,0.00123 -0.004579,0.00112 -0.007992,0.00368 -0.0102508,0.00767 -0.002259,0.00399 -0.00276,0.00855 -0.001546,0.013513 0.001588,0.00649 0.005544,0.011071 0.0118603,0.013768 0.006174,0.00294 0.0146046,0.0031 0.0252762,4.847e-4 0.0204001,-0.00499 0.0395141,-0.019781 0.0573449,-0.044347 0.018066,-0.024428 0.042261,-0.079553 0.072582,-0.1653794 0.046621,-0.012626 0.081106,-0.021571 0.1034606,-0.026836 0.00372,0.029198 0.00557,0.049963 0.00555,0.062295 1.12e-5,0.017375 -0.00112,0.034222 -0.00339,0.050539 0.015982,-0.00655 0.027976,-0.01079 0.03598,-0.01275 0.00477,-0.00117 0.016343,-0.00299 0.034733,-0.00546 0.010762,-0.00143 0.019839,-0.00314 0.027278,-0.00496 0.00515,-0.00126 0.011076,-0.00301 0.017807,-0.00527 l -0.00112,-0.017001 c -0.00835,0.00387 -0.016236,0.00671 -0.023676,0.00853 -0.011253,0.00275 -0.024368,0.00405 -0.039364,0.00388 L 1.2195301,1.1244155 1.2013793,0.95366097 c -0.00181,-0.0181486 -0.00273,-0.0396445 -0.00275,-0.0644949 z m 1.260865,-0.29254351 c -0.00515,0.00126 -0.013878,0.005215 -0.026194,0.0118666 -0.00748,0.004055 -0.01234,0.007768 -0.01455,0.0111385 -0.00115,0.001898 -0.00138,0.004681 -6.937e-4,0.008354 0.010113,0.0644108 0.020094,0.14360544 0.02996,0.23757902 l 0.016586,-0.00406 3.114e-4,-0.14981205 c 8.541e-4,-0.0584056 0.00164,-0.0915352 0.00235,-0.0993881 4.516e-4,-0.004759 3.46e-4,-0.008471 -3.073e-4,-0.0111404 -9.797e-4,-0.004003 -0.00347,-0.005515 -0.00748,-0.004533 z M 1.1651566,0.96794857 c -4.238e-4,0.0378912 0.00426,0.0966591 0.014054,0.17630393 -0.00806,0.00258 -0.015709,0.00475 -0.022954,0.00653 -0.029359,0.00719 -0.052022,0.01243 -0.067987,0.015731 l 0.046828,-0.1269462 c 0.00366,-0.00979 0.013687,-0.033661 0.030059,-0.0716163 z m 0.3439547,-0.0399322 c -0.013917,0.003406 -0.027098,0.0118861 -0.039543,0.0254401 -0.012301,0.0133158 -0.027953,0.0401839 -0.046956,0.0806018 -0.010155,0.021277 -0.019206,0.036729 -0.027151,0.046353 l -0.00193,-0.0821764 c -1.731e-4,-0.0114755 -4.387e-4,-0.0182807 -9.521e-4,-0.0203784 -0.00145,-0.005911 -0.00598,-0.007932 -0.013612,-0.006064 -0.0082,0.002007 -0.0204,0.009944 -0.036607,0.0238123 -0.016253,0.0136773 -0.031369,0.03324 -0.045348,0.0586874 l 0.011308,0.00784 c 0.016425,-0.028673 0.028641,-0.043989 0.036645,-0.045948 0.0042,-0.00103 0.00683,6.517e-4 0.0079,0.00504 0.00233,0.00953 0.00308,0.052998 0.00221,0.1304017 l -0.00119,0.081828 0.043182,-0.010569 -0.00135,-0.1306144 c 0.014692,0.00389 0.026088,0.00958 0.034191,0.017092 0.0083,0.00746 0.01816,0.020107 0.02959,0.037921 0.040206,0.061895 0.074526,0.100982 0.1029618,0.1172603 0.028674,0.016423 0.057307,0.021134 0.085905,0.014134 0.011966,-0.00293 0.02212,-0.00755 0.030583,-0.013745 0.00699,0.00483 0.013774,0.00642 0.020278,0.00483 0.00362,-8.868e-4 0.00644,-0.003 0.00846,-0.00631 0.00206,-0.00313 0.0027,-0.00631 0.0019,-0.00956 -0.00144,-0.00588 -0.0056,-0.00871 -0.012434,-0.00868 0.00572,-0.00921 0.00823,-0.018625 0.00754,-0.028216 0.00456,-7.117e-4 0.010579,-0.00156 0.017961,-0.00257 0.018915,-0.00281 0.038926,-0.0069 0.06009,-0.012082 0.022687,-0.00555 0.039012,-0.014397 0.048927,-0.026726 0.010107,-0.012368 0.013619,-0.024854 0.010539,-0.037437 -9.795e-4,-0.004 -0.00348,-0.00966 -0.00749,-0.01696 -0.00368,-0.00678 -0.00602,-0.012169 -0.007,-0.016172 -0.00336,-0.013727 -2.659e-4,-0.027922 0.00928,-0.042585 l -0.01203,-0.00827 c -0.018479,0.030994 -0.031152,0.047331 -0.038017,0.049011 -0.00553,0.00135 -0.00921,-0.00169 -0.011026,-0.00913 -0.00196,-0.00801 -0.00212,-0.042928 -4.831e-4,-0.10475762 l 0.00245,-0.10638644 -0.040609,0.009939 -0.00247,0.12488 c -5.725e-4,0.023992 -0.00852,0.047256 -0.023818,0.069794 -0.015347,0.022347 -0.028358,0.034828 -0.039031,0.03744 -0.00305,7.465e-4 -0.00629,-7.71e-5 -0.00965,-0.00229 -0.00319,-0.00226 -0.00535,-0.00536 -0.00633,-0.00936 -0.00159,-0.00649 -0.00194,-0.034383 -0.00109,-0.083695 0.00113,-0.0548357 8.24e-5,-0.0888313 -0.00314,-0.10198611 -0.00173,-0.007055 -0.00441,-0.0118525 -0.00807,-0.0143919 -0.00371,-0.00273 -0.00784,-0.003538 -0.012417,-0.002416 -0.0082,0.002007 -0.018179,0.008288 -0.029942,0.0188464 -0.011617,0.0103209 -0.027402,0.0300463 -0.04735,0.0591774 l 0.015032,0.006929 c 0.010985,-0.0170358 0.019012,-0.0279928 0.024084,-0.0328713 0.00503,-0.005071 0.00926,-0.008025 0.012683,-0.008864 0.00382,-9.3432e-4 0.00636,0.001271 0.00767,0.006609 0.00224,0.009151 0.00259,0.0382648 0.00107,0.0873371 -0.00123,0.038695 -0.00162,0.064354 -0.00117,0.076972 3.8e-4,0.009 0.00147,0.017214 0.0033,0.024654 0.00233,0.00954 0.00594,0.016028 0.010821,0.019478 0.00489,0.00345 0.010672,0.00436 0.017338,0.00273 0.012202,-0.00299 0.025429,-0.011279 0.039636,-0.02506 0.021381,-0.020793 0.038177,-0.042989 0.050386,-0.066589 -1.364e-4,0.017613 0.00101,0.031378 0.00344,0.041291 0.0021,0.00858 0.00581,0.014643 0.011124,0.018192 0.00556,0.00368 0.011452,0.00467 0.017551,0.00318 0.015825,-0.00387 0.032163,-0.020501 0.049018,-0.049886 l 2.1e-4,8.58e-4 c -0.00163,0.00989 -0.00173,0.018099 -1.388e-4,0.024586 7.465e-4,0.00305 0.0022,0.00694 0.00437,0.011661 0.0015,0.00367 0.00256,0.00674 0.00317,0.00923 0.00159,0.00649 1.115e-4,0.012401 -0.00445,0.017759 -0.0045,0.00555 -0.011326,0.00944 -0.020479,0.011684 -0.013897,0.0034 -0.03199,0.0057 -0.054282,0.00691 l -9.54e-5,2.33e-5 c -0.016714,8.685e-4 -0.029069,0.00227 -0.037057,0.00422 -0.00808,0.00198 -0.015467,0.00541 -0.022141,0.010268 -0.00219,-2.669e-4 -0.00448,-1.49e-5 -0.00683,5.605e-4 -0.00477,0.00117 -0.00848,0.0038 -0.011061,0.00806 -0.00236,0.00442 -0.00302,0.00872 -0.002,0.012917 7.49e-5,3.056e-4 2.675e-4,7.882e-4 3.76e-4,0.00112 -0.00412,0.00879 -0.00495,0.018126 -0.00249,0.028192 9.605e-4,0.00392 0.00225,0.00755 0.00395,0.010759 -0.00489,0.00394 -0.01057,0.00662 -0.016989,0.00819 -0.018303,0.00448 -0.035686,0.00116 -0.052149,-0.00997 -0.016416,-0.010936 -0.036045,-0.032097 -0.058884,-0.063486 -0.031778,-0.043952 -0.054044,-0.070935 -0.066795,-0.08095 -0.012572,-0.010058 -0.033307,-0.018016 -0.062221,-0.023872 0.00642,-0.00763 0.015775,-0.023058 0.028078,-0.046277 0.012924,-0.023977 0.024145,-0.0404639 0.033663,-0.0494622 0.00948,-0.009191 0.019831,-0.0151588 0.03108,-0.0179121 0.0021,-5.1352e-4 0.00529,-0.001093 0.00958,-0.001739 l 0.00808,-0.001675 c 0.014681,-0.003593 0.020527,-0.0114905 0.01754,-0.0236922 -0.00308,-0.012583 -0.012721,-0.0168917 -0.028928,-0.0129248 z m 0.3915828,-0.0831129 c -0.0082,0.002007 -0.018178,0.008288 -0.029942,0.0188464 -0.011617,0.0103209 -0.027402,0.030046 -0.04735,0.0591774 l 0.015032,0.006929 c 0.010985,-0.0170358 0.019013,-0.0279931 0.024084,-0.0328713 0.00503,-0.005071 0.00926,-0.008026 0.012683,-0.008864 0.00382,-9.3432e-4 0.00636,0.001271 0.00767,0.006609 0.00224,0.009151 0.00259,0.0382648 0.00107,0.0873371 -0.00124,0.0386979 -0.00162,0.0643535 -0.00117,0.0769721 3.8e-4,0.009 0.00147,0.017214 0.0033,0.024654 0.00233,0.00954 0.00594,0.016028 0.010821,0.019478 0.00489,0.00345 0.010672,0.00436 0.017338,0.00273 0.012202,-0.00299 0.025405,-0.011376 0.039613,-0.025154 0.021381,-0.020793 0.038177,-0.042989 0.050386,-0.066589 -1.364e-4,0.017613 0.00101,0.031378 0.00344,0.041291 0.0021,0.00858 0.00581,0.014642 0.011124,0.018192 0.00556,0.00368 0.011385,0.00479 0.017478,0.0033 0.018111,-0.00443 0.041452,-0.031262 0.070021,-0.0804877 l -0.01203,-0.008267 c -0.013201,0.0220278 -0.022409,0.0360019 -0.027628,0.0419221 -0.00368,0.00394 -0.00712,0.0064 -0.010368,0.00719 -0.00211,5.159e-4 -0.00427,-6.71e-5 -0.00644,-0.00156 -0.00219,-0.00148 -0.00373,-0.00404 -0.00461,-0.00766 -0.00196,-0.00801 -0.00212,-0.0429276 -4.831e-4,-0.10475748 l 0.00247,-0.10638264 -0.040609,0.009939 -0.00245,0.12497534 c -6.034e-4,0.0239923 -0.00854,0.0472533 -0.023837,0.0697901 -0.015347,0.022347 -0.028358,0.034828 -0.039031,0.03744 -0.00305,7.465e-4 -0.00629,-7.71e-5 -0.00965,-0.00229 -0.00319,-0.00226 -0.00525,-0.00539 -0.00623,-0.00939 -0.00159,-0.00649 -0.00194,-0.034383 -0.00109,-0.0836953 0.00113,-0.0548356 8.25e-5,-0.0888312 -0.00314,-0.10198603 -0.00173,-0.007055 -0.00441,-0.0118525 -0.00807,-0.0143919 -0.00371,-0.00273 -0.00784,-0.003538 -0.012417,-0.002416 z m 0.3670185,-0.083163 c -0.042476,0.0106233 -0.075109,0.0259896 -0.097843,0.0460748 -0.022904,0.0203572 -0.031741,0.0412119 -0.026515,0.0625649 0.00336,0.013731 0.012196,0.0237934 0.026487,0.0301934 0.014441,0.006163 0.033769,0.006284 0.057981,3.5765e-4 l 0.00743,-0.001819 9.105e-4,0.00372 c -0.019136,0.0101401 -0.032226,0.0198146 -0.039275,0.029012 -0.00705,0.009199 -0.014121,0.0252799 -0.021232,0.0482377 -0.00701,0.0225304 -0.015004,0.0348924 -0.023961,0.0370848 -0.00476,0.00117 -0.00874,2.237e-4 -0.011907,-0.00284 -0.00321,-0.00325 -0.00936,-0.013066 -0.018417,-0.0294395 l -0.013107,0.008366 c 0.014249,0.0276368 0.02564,0.0436426 0.034181,0.0480112 0.00854,0.00436 0.017304,0.00546 0.026261,0.00327 0.022497,-0.00551 0.038929,-0.026299 0.049294,-0.0623817 0.00896,-0.0319019 0.017307,-0.0535437 0.025027,-0.0649286 0.00768,-0.0115768 0.019518,-0.0193263 0.035533,-0.0232462 l -0.00105,0.0526946 c -3.185e-4,0.0152294 7.737e-4,0.0278938 0.00325,0.0380024 0.00247,0.0101047 0.00644,0.0172122 0.011894,0.0213371 0.00564,0.00408 0.011616,0.00534 0.017905,0.0038 0.018111,-0.00443 0.041357,-0.031239 0.069735,-0.0804176 l -0.01203,-0.008267 c -0.018479,0.0309939 -0.031152,0.0473311 -0.038017,0.0490114 -0.00533,0.001305 -0.00892,-0.001759 -0.010744,-0.009196 -0.00196,-0.008013 -0.00221,-0.0429039 -7.677e-4,-0.10468786 l 0.00245,-0.10638561 -0.051469,0.0113847 c -6.793e-4,1.6626e-4 -0.00132,3.1994e-4 -0.002,4.8975e-4 z m -0.026348,0.0285758 c 0.013917,-0.003406 0.026993,-0.004888 0.039225,-0.004448 l -0.00223,0.0899629 c -0.011117,0.004131 -0.019623,0.006924 -0.025534,0.008371 -0.035271,0.008633 -0.056149,-3.0059e-4 -0.062636,-0.0268015 -0.00373,-0.015252 -1.903e-4,-0.0292539 0.010633,-0.0420066 0.010822,-0.0127524 0.024336,-0.0211118 0.04054,-0.0250787 z m 0.2150005,0.10772147 c -0.00815,0.002208 -0.013969,0.007177 -0.017377,0.0148635 -0.00486,0.0106816 -0.00582,0.022035 -0.00288,0.0340464 0.00201,0.008198 0.00615,0.0143595 0.0124,0.0184859 0.00641,0.003888 0.01332,0.004925 0.020765,0.003102 0.00896,-0.002192 0.015532,-0.007539 0.019718,-0.0160375 0.00419,-0.0085 0.00475,-0.018945 0.00172,-0.0313372 -0.0021,-0.008577 -0.00639,-0.015003 -0.012902,-0.0192723 -0.00635,-0.004499 -0.013245,-0.005849 -0.020688,-0.004027 -2.681e-4,6.562e-5 -4.997e-4,1.154e-4 -7.628e-4,1.867e-4 z" />
</svg>
