<?xml version="1.0" encoding="UTF-8" standalone="no"?>
<!-- Uploaded to: SVG Repo, www.svgrepo.com, Generator: SVG Repo Mixer Tools -->

<svg
   width="60"
   height="64"
   viewBox="0 0 1.8 1.92"
   fill="none"
   version="1.1"
   id="svg4"
   sodipodi:docname="logout.svg"
   inkscape:version="1.2.2 (732a01da63, 2022-12-09)"
   xmlns:inkscape="http://www.inkscape.org/namespaces/inkscape"
   xmlns:sodipodi="http://sodipodi.sourceforge.net/DTD/sodipodi-0.dtd"
   xmlns="http://www.w3.org/2000/svg"
   xmlns:svg="http://www.w3.org/2000/svg">
  <defs
     id="defs8" />
  <sodipodi:namedview
     id="namedview6"
     pagecolor="#ffffff"
     bordercolor="#000000"
     borderopacity="0.25"
     inkscape:showpageshadow="2"
     inkscape:pageopacity="0.0"
     inkscape:pagecheckerboard="0"
     inkscape:deskcolor="#d1d1d1"
     showgrid="false"
     inkscape:zoom="5.9184838"
     inkscape:cx="70.87964"
     inkscape:cy="58.460919"
     inkscape:window-width="1920"
     inkscape:window-height="1017"
     inkscape:window-x="-8"
     inkscape:window-y="-8"
     inkscape:window-maximized="1"
     inkscape:current-layer="svg4" />
  <path
     style="color:#000000;fill:#dcdcc8;stroke-linecap:round;stroke-linejoin:round;stroke-width:0.99999;stroke-dasharray:none;stroke:none;fill-opacity:1"
     d="M 0.28515625,0 C 0.12828617,0 0,0.13020642 0,0.28710938 V 1.6328125 c 0,0.156905 0.12828852,0.2871094 0.28515625,0.2871094 h 0.66210938 c 0.15686977,0 0.28515627,-0.1302067 0.28515627,-0.2871094 V 1.3925781 a 0.09537,0.09537 0 0 0 -0.095703,-0.095703 0.09537,0.09537 0 0 0 -0.095703,0.095703 v 0.2402344 c 0,0.055336 -0.0414897,0.095703 -0.09375,0.095703 H 0.28515625 c -0.0522558,0 -0.09375,-0.040368 -0.09375,-0.095703 V 0.28710938 c 0,-0.0553301 0.041496,-0.0957031 0.09375,-0.0957031 h 0.66210938 c 0.0522582,0 0.09375,0.040371 0.09375,0.0957031 v 0.29492187 a 0.09537,0.09537 0 0 0 0.095703,0.0957031 0.09537,0.09537 0 0 0 0.095703,-0.0957031 V 0.28710938 C 1.2324219,0.13020782 1.1041368,0 0.94726563,0 Z M 1.4003906,0.65234375 a 0.09537,0.09537 0 0 0 0,0.13476562 l 0.076172,0.078125 h -0.71875 a 0.09537,0.09537 0 0 0 -0.0957031,0.0957031 0.09537,0.09537 0 0 0 0.0957031,0.09375 h 0.71875 l -0.076172,0.078125 a 0.09537,0.09537 0 0 0 0,0.1347656 0.09537,0.09537 0 0 0 0.1347656,0 L 1.7734375,1.0273437 a 0.09537,0.09537 0 0 0 0.00586,-0.00977 0.09537,0.09537 0 0 0 0.015625,-0.0292968 0.09537,0.09537 0 0 0 0.00195,-0.003906 0.09537,0.09537 0 0 0 0,-0.003906 0.09537,0.09537 0 0 0 0.00391,-0.0195313 0.09537,0.09537 0 0 0 -0.00391,-0.0195313 0.09537,0.09537 0 0 0 -0.00195,-0.009766 0.09537,0.09537 0 0 0 -0.00195,-0.007813 0.09537,0.09537 0 0 0 -0.019531,-0.03125 L 1.5351562,0.65234375 a 0.09537,0.09537 0 0 0 -0.1347656,0 z"
     id="path2" />
</svg>
