<?xml version="1.0" encoding="UTF-8" standalone="no"?>
<!-- Uploaded to: SVG Repo, www.svgrepo.com, Generator: SVG Repo Mixer Tools -->

<svg
   fill="#000000"
   width="60"
   height="60"
   viewBox="0 0 3.75 3.75"
   version="1.1"
   id="svg12"
   sodipodi:docname="pizza-logo.svg"
   inkscape:version="1.2.2 (732a01da63, 2022-12-09)"
   xmlns:inkscape="http://www.inkscape.org/namespaces/inkscape"
   xmlns:sodipodi="http://sodipodi.sourceforge.net/DTD/sodipodi-0.dtd"
   xmlns="http://www.w3.org/2000/svg"
   xmlns:svg="http://www.w3.org/2000/svg">
  <defs
     id="defs16" />
  <sodipodi:namedview
     id="namedview14"
     pagecolor="#ffffff"
     bordercolor="#000000"
     borderopacity="0.25"
     inkscape:showpageshadow="2"
     inkscape:pageopacity="0.0"
     inkscape:pagecheckerboard="0"
     inkscape:deskcolor="#d1d1d1"
     showgrid="false"
     inkscape:zoom="11.836968"
     inkscape:cx="31.553688"
     inkscape:cy="34.637248"
     inkscape:window-width="1920"
     inkscape:window-height="1017"
     inkscape:window-x="-8"
     inkscape:window-y="-8"
     inkscape:window-maximized="1"
     inkscape:current-layer="svg12" />
  <path
     d="M 1.5690102,3.3193323e-4 C 1.5578792,0.00121044 1.5470422,0.00296745 1.5338612,0.00735999 c -0.026362,0.00878512 -0.047451,0.02781943 -0.060925,0.04685375 -0.013474,0.01903431 -0.021675,0.03836152 -0.030462,0.06090988 -0.028705,0.073209 -0.1004673,0.28932189 -0.1359091,0.3912288 -0.00146,0.003807 -0.00117,0.007907 -0.00234,0.0117134 -8.787e-4,0.001465 -0.00176,0.003221 -0.00234,0.004686 l -0.2858779,0.69343558 -0.00469,0.00703 c -0.00205,0.00439 -0.00351,0.00937 -0.00469,0.014057 L 0.3833141,2.7389336 c -8.7874e-4,0.00234 -0.001757,0.00469 -0.002343,0.00703 l -0.37491601,0.89959 c -0.01200921,0.028112 -0.005858202,0.06091 0.01581705,0.08258 0.02167513,0.02167 0.05448078,0.027819 0.08259991,0.015813 L 3.2046063,2.4624964 c 0.00234,-5.856e-4 0.00469,-0.00146 0.00703,-0.00234 0.073813,-0.023719 0.332743,-0.1130346 0.4006976,-0.1358759 0.043643,-0.014641 0.089044,-0.036897 0.117163,-0.084336 0.028119,-0.047439 0.025776,-0.1092278 0.00234,-0.1639881 C 3.6474826,1.8777032 3.4365891,1.2516199 2.9702801,0.78513222 2.5183237,0.33328636 1.9325085,0.0905254 1.6603973,0.01673074 1.6302278,0.00853133 1.6026946,-0.00201076 1.5690102,3.3193323e-4 Z M 1.5924432,0.15026393 c -0.00146,0.001757 -2.929e-4,0.003514 0.030462,0.0117134 0.2428204,0.0655953 0.8172122,0.30396374 1.2419282,0.7285758 0.434675,0.43486137 0.6359025,1.02580437 0.7287542,1.24396707 0.012302,0.028991 0.00674,0.028405 0.00703,0.028112 2.929e-4,-2.928e-4 -0.0082,0.00967 -0.035149,0.018741 -0.071762,0.024012 -0.3327431,0.1147918 -0.3983545,0.1358759 -0.00146,5.857e-4 -0.00322,0.00146 -0.00469,0.00234 2.929e-4,0 5.859e-4,-0.00205 -0.00469,-0.016399 C 3.0871503,2.1125575 2.8891447,1.6504625 2.4969414,1.2583551 2.1176261,0.87913254 1.6721137,0.68117545 1.4705932,0.60474529 c -0.018746,-0.007028 -0.028119,-0.0122991 -0.032806,-0.0140562 2.929e-4,-0.001757 0.00381,-0.008492 0.00469,-0.0117134 0.00351,-0.007321 0.00586,-0.0152275 0.00703,-0.0234269 0.036613,-0.10512812 0.1115978,-0.32826906 0.1335658,-0.38420074 0.00469,-0.0120063 0.00674,-0.0163988 0.00937,-0.0210841 z M 1.3792061,0.73125041 c 0.012888,0.005271 0.026069,0.009664 0.037492,0.0140562 0.1895113,0.0717447 0.6189138,0.26267379 0.9747965,0.61846939 0.367892,0.367802 0.5594536,0.8146697 0.6256506,0.9932995 0.00205,0.00527 0.00469,0.011128 0.00703,0.016399 L 1.9251858,2.8279557 c 0.015231,-0.040411 0.025776,-0.083166 0.025776,-0.1288478 0,-0.2061565 -0.1687148,-0.37483 -0.3749217,-0.37483 -0.206207,0 -0.3749218,0.1686735 -0.3749218,0.37483 0,0.1496392 0.090216,0.2773157 0.2179233,0.337347 L 0.21694857,3.5331046 0.45127466,2.9685169 c 0.0550666,0.063546 0.1350304,0.105421 0.22495305,0.105421 0.16461412,0 0.2999374,-0.1349974 0.2999374,-0.299864 0,-0.1648667 -0.13532328,-0.299864 -0.2999374,-0.299864 -0.00703,0 -0.0140596,0.00176 -0.0210894,0.00234 L 0.91758358,1.844027 c 0.082307,0.1089349 0.21206522,0.1803869 0.35851902,0.1803869 0.2475069,0 0.4499061,-0.2020568 0.4499061,-0.449796 0,-0.2477391 -0.2023992,-0.449796 -0.4499061,-0.449796 -0.020504,0 -0.041007,0.00205 -0.060925,0.00469 z M 1.2761026,1.2747539 c 0.1666644,0 0.2999374,0.1332404 0.2999374,0.299864 0,0.1666237 -0.133273,0.2998641 -0.2999374,0.2998641 -0.1350304,0 -0.247507,-0.087266 -0.28587793,-0.2084993 L 1.1401935,1.3075515 c 0.040714,-0.020791 0.086993,-0.032798 0.1359091,-0.032798 z m 1.0497808,0.299864 c -0.164614,0 -0.2999374,0.1349974 -0.2999374,0.2998641 0,0.024305 0.00146,0.047732 0.00703,0.070281 -0.094316,0.06823 -0.1569985,0.1798012 -0.1569985,0.3045493 0,0.2061565 0.1687148,0.37483 0.3749218,0.37483 0.2062069,0 0.3749217,-0.1686735 0.3749217,-0.37483 0,-0.072623 -0.022261,-0.139097 -0.058581,-0.1967857 0.036906,-0.050368 0.058581,-0.1115705 0.058581,-0.1780442 0,-0.1648667 -0.1353233,-0.2998641 -0.2999376,-0.2998645 z m 0,0.149932 c 0.083772,0 0.1499687,0.066181 0.1499687,0.1499321 0,0.023134 -0.00469,0.046268 -0.01406,0.065595 C 2.4014531,1.898494 2.3293979,1.874482 2.2508987,1.874482 c -0.025776,0 -0.050673,0.00205 -0.074984,0.00703 0,-0.00234 0,-0.00469 0,-0.00703 0,-0.083752 0.066197,-0.1499321 0.1499687,-0.1499321 z m -0.074984,0.299864 c 0.060632,0 0.114234,0.024891 0.1546552,0.063252 0.00557,0.00849 0.012595,0.01552 0.021089,0.021084 0.030755,0.038362 0.049208,0.086973 0.049208,0.1405613 0,0.1250409 -0.099881,0.224898 -0.224953,0.224898 -0.1250716,0 -0.2249531,-0.099857 -0.2249531,-0.224898 0,-0.083751 0.045108,-0.1557888 0.1124765,-0.1944431 0.014938,-0.00205 0.028705,-0.00879 0.039836,-0.018741 0.022847,-0.00762 0.047158,-0.011713 0.072641,-0.011713 z M 1.57604,2.4742099 c 0.1250715,0 0.224953,0.099857 0.224953,0.224898 0,0.1250409 -0.099881,0.224898 -0.224953,0.224898 -0.1250716,0 -0.2249531,-0.099858 -0.2249531,-0.224898 0,-0.125041 0.099881,-0.224898 0.2249531,-0.224898 z m -0.89981229,0.149932 c 0.0837716,0 0.1499687,0.066181 0.1499687,0.149932 0,0.083751 -0.0661971,0.149932 -0.1499687,0.149932 -0.0796709,0 -0.14411054,-0.060324 -0.1499687,-0.1382186 l 0.0515517,-0.1241624 c 0.0263617,-0.023134 0.060339,-0.037483 0.098417,-0.037483 z"
     id="path10"
     style="fill:#c8c864;fill-opacity:1;stroke-width:0.0625;stroke:none;stroke-opacity:1;vector-effect:non-scaling-stroke;-inkscape-stroke:hairline;stroke-dasharray:none" />
  <ellipse
     style="opacity:1;vector-effect:non-scaling-stroke;fill:#c85737;fill-opacity:1;stroke-width:0.0559348;-inkscape-stroke:hairline;paint-order:markers stroke fill"
     id="path3704"
     cx="1.5540611"
     cy="2.6991079"
     rx="0.24693196"
     ry="0.26053798" />
  <ellipse
     style="opacity:1;vector-effect:non-scaling-stroke;fill:#418937;fill-opacity:1;stroke-width:0.0685073;-inkscape-stroke:hairline;paint-order:markers stroke fill"
     id="path5267"
     cx="2.2436917"
     cy="2.2490313"
     rx="0.23183586"
     ry="0.22506712" />
  <ellipse
     style="opacity:1;vector-effect:non-scaling-stroke;fill:#e9ef41;fill-opacity:1;stroke-width:0.0625;-inkscape-stroke:hairline;paint-order:markers stroke fill"
     id="path5321"
     cx="0.67622769"
     cy="2.7749953"
     rx="0.14934032"
     ry="0.14901048" />
</svg>
